<svg width="20" height="20" viewBox="0 0 20 20" fill="none" xmlns="http://www.w3.org/2000/svg">
<path d="M11.0577 3.05835C11.3077 2.80839 11.6468 2.66797 12.0003 2.66797C12.3539 2.66797 12.693 2.80839 12.943 3.05835L18.943 9.05835C19.193 9.30839 19.3334 9.64747 19.3334 10.001C19.3334 10.3546 19.193 10.6936 18.943 10.9437L12.943 16.9437C12.6915 17.1866 12.3547 17.321 12.0051 17.3179C11.6555 17.3149 11.3211 17.1747 11.0739 16.9274C10.8267 16.6802 10.6865 16.3458 10.6834 15.9962C10.6804 15.6466 10.8148 15.3098 11.0577 15.0584L14.667 11.3344H2.00033C1.6467 11.3344 1.30757 11.1939 1.05752 10.9438C0.807468 10.6938 0.666992 10.3546 0.666992 10.001C0.666992 9.6474 0.807468 9.30826 1.05752 9.05821C1.30757 8.80816 1.6467 8.66768 2.00033 8.66768H14.667L11.0577 4.94368C10.8077 4.69365 10.6673 4.35457 10.6673 4.00102C10.6673 3.64747 10.8077 3.30839 11.0577 3.05835Z" fill="white"/>
</svg>
